<?xml version="1.0" encoding="utf-8"?>
<!-- Generator: Adobe Illustrator 21.1.0, SVG Export Plug-In . SVG Version: 6.00 Build 0)  -->
<svg version="1.1" id="Layer_1" xmlns="http://www.w3.org/2000/svg" xmlns:xlink="http://www.w3.org/1999/xlink" x="0px" y="0px"
	 viewBox="0 0 93.1 31.8" style="enable-background:new 0 0 93.1 31.8;" xml:space="preserve">
<style type="text/css">
	.st0{fill:#FFBB1F;stroke:#FFBB1F;stroke-width:0.946;stroke-linecap:round;stroke-linejoin:round;stroke-miterlimit:10;}
	.st1{fill:#FFBB1F;}
</style>
<g>
	<g>
		<path class="st0" d="M2.6,13.6c-0.9-0.3-1.6-0.7-2.1-1.3L1,11.2c0.5,0.5,1.1,0.9,1.9,1.2c0.8,0.3,1.6,0.4,2.5,0.4
			c1.2,0,2.1-0.2,2.7-0.7c0.6-0.4,0.9-1,0.9-1.7c0-0.5-0.2-1-0.5-1.3C8.2,8.9,7.8,8.6,7.3,8.5c-0.5-0.2-1.1-0.4-2-0.6
			C4.4,7.6,3.6,7.4,3,7.2C2.4,6.9,1.9,6.6,1.4,6.1C1,5.6,0.8,5,0.8,4.1c0-0.7,0.2-1.3,0.5-1.8C1.7,1.7,2.2,1.3,3,1
			c0.7-0.3,1.7-0.5,2.7-0.5c0.8,0,1.5,0.1,2.2,0.3C8.7,1,9.3,1.3,9.8,1.7L9.4,2.8C8.8,2.4,8.2,2.1,7.6,2C6.9,1.8,6.3,1.7,5.7,1.7
			c-1.2,0-2,0.2-2.6,0.7s-0.9,1-0.9,1.7c0,0.5,0.2,1,0.5,1.3C3,5.7,3.4,6,3.9,6.1s1.1,0.4,2,0.6c1,0.2,1.8,0.5,2.4,0.7
			C8.8,7.6,9.4,8,9.8,8.5c0.4,0.5,0.6,1.1,0.6,1.9c0,0.7-0.2,1.3-0.5,1.8c-0.4,0.6-0.9,1-1.7,1.3C7.4,13.9,6.5,14,5.4,14
			C4.4,14,3.5,13.9,2.6,13.6z"/>
		<path class="st0" d="M24.6,0.6l0,13.3h-1.4l0-6.2l-8.3,0l0,6.2l-1.4,0l0-13.3l1.4,0l0,5.9l8.3,0l0-5.9L24.6,0.6z"/>
		<path class="st0" d="M38.4,12.7l0,1.2l-9.4,0l0-13.3l9.1,0l0,1.2l-7.7,0l0,4.7l6.9,0l0,1.2l-6.9,0l0,5L38.4,12.7z"/>
		<path class="st0" d="M41.7,0.6l5.4,0c1.4,0,2.7,0.3,3.7,0.8c1.1,0.6,1.9,1.4,2.5,2.4c0.6,1,0.9,2.2,0.9,3.5s-0.3,2.4-0.9,3.5
			c-0.6,1-1.4,1.8-2.5,2.4c-1.1,0.6-2.3,0.8-3.7,0.8l-5.4,0L41.7,0.6z M47,12.7c1.2,0,2.2-0.2,3.1-0.7c0.9-0.5,1.6-1.1,2-1.9
			c0.5-0.8,0.7-1.8,0.7-2.8c0-1.1-0.2-2-0.7-2.8c-0.5-0.8-1.2-1.5-2-1.9C49.2,2,48.2,1.8,47,1.8l-3.9,0l0,10.9L47,12.7z"/>
		<path class="st0" d="M65.4,6.4c0.7,0.3,1.2,0.8,1.6,1.4c0.4,0.6,0.6,1.3,0.6,2.1c0,0.8-0.2,1.5-0.6,2.2c-0.4,0.6-0.9,1.1-1.6,1.4
			C64.7,13.9,63.9,14,63,14c-1.8,0-3.1-0.6-4.1-1.7c-0.9-1.2-1.4-2.8-1.4-4.9c0-1.5,0.3-2.7,0.8-3.8c0.5-1,1.2-1.8,2.1-2.3
			s2-0.8,3.2-0.8c1.3,0,2.4,0.2,3.2,0.7l-0.6,1.1c-0.6-0.4-1.5-0.6-2.6-0.6c-1.5,0-2.6,0.5-3.5,1.4C59.4,4,59,5.4,59,7.1
			c0,0.3,0,0.7,0.1,1.1c0.3-0.7,0.9-1.3,1.6-1.7c0.7-0.4,1.6-0.6,2.5-0.6C64,5.9,64.8,6.1,65.4,6.4z M65.3,12.1
			c0.6-0.5,0.9-1.2,0.9-2.1c0-0.9-0.3-1.6-0.9-2.1c-0.6-0.5-1.4-0.8-2.4-0.8c-0.7,0-1.3,0.1-1.8,0.4c-0.5,0.3-0.9,0.6-1.2,1
			C59.6,9,59.5,9.5,59.5,10c0,0.5,0.1,1,0.4,1.4c0.3,0.4,0.7,0.8,1.2,1c0.5,0.3,1.2,0.4,1.9,0.4C64,12.9,64.7,12.6,65.3,12.1z"/>
		<path class="st0" d="M79.6,12.7v1.2l-9.4,0v-1l5.5-5.4c0.7-0.7,1.2-1.3,1.4-1.8c0.2-0.5,0.4-1,0.4-1.5c0-0.8-0.3-1.4-0.8-1.8
			c-0.5-0.4-1.3-0.7-2.3-0.7c-1.6,0-2.8,0.5-3.6,1.5l-1-0.8c0.5-0.6,1.2-1.1,2-1.4c0.8-0.3,1.7-0.5,2.7-0.5c1.4,0,2.4,0.3,3.2,1
			C78.6,2.1,79,3,79,4.1c0,0.7-0.2,1.3-0.5,2c-0.3,0.6-0.9,1.4-1.7,2.2l-4.5,4.5L79.6,12.7z"/>
		<path class="st0" d="M90.4,6.4c0.7,0.3,1.2,0.8,1.6,1.4c0.4,0.6,0.6,1.3,0.6,2.1c0,0.8-0.2,1.5-0.6,2.2c-0.4,0.6-0.9,1.1-1.6,1.4
			C89.7,13.9,88.9,14,88,14c-1.8,0-3.1-0.6-4.1-1.7c-0.9-1.2-1.4-2.8-1.4-4.9c0-1.5,0.3-2.7,0.8-3.8c0.5-1,1.2-1.8,2.1-2.3
			c0.9-0.5,2-0.8,3.2-0.8c1.3,0,2.4,0.2,3.2,0.7l-0.6,1.1c-0.6-0.4-1.5-0.6-2.6-0.6c-1.5,0-2.6,0.5-3.5,1.4C84.4,4,84,5.4,84,7.1
			c0,0.3,0,0.7,0.1,1.1c0.3-0.7,0.9-1.3,1.6-1.7c0.7-0.4,1.6-0.6,2.5-0.6C89,5.9,89.8,6.1,90.4,6.4z M90.3,12.1
			c0.6-0.5,0.9-1.2,0.9-2.1c0-0.9-0.3-1.6-0.9-2.1c-0.6-0.5-1.4-0.8-2.4-0.8c-0.7,0-1.3,0.1-1.8,0.4c-0.5,0.3-0.9,0.6-1.2,1
			C84.6,9,84.5,9.5,84.5,10c0,0.5,0.1,1,0.4,1.4c0.3,0.4,0.7,0.8,1.2,1c0.5,0.3,1.2,0.4,1.9,0.4C89,12.9,89.7,12.6,90.3,12.1z"/>
	</g>
	<g>
		<g>
			<path d="M56,7.3c1,0.1,1.5,0.6,1.5,1.4v0.1c-0.1,1.3-0.8,3-2.4,5.1l-0.3-0.2c1.4-2.3,2.2-3.9,2.2-4.9V8.5C57,8,56.7,7.8,56.3,7.8
				h-0.6c-2.6,0.1-6,1.8-10.2,5.3c-3.1,3-4.7,5.7-4.7,8.2l0,1c0,1.6,1.1,2.5,3.3,2.8h0.5c3.5,0,7-1.7,10.2-5.1
				c0.9-1,1.5-1.8,1.8-2.2v-0.3c-8.1,1.5-12.2,2.3-12.4,2.3l-0.1-0.1v-0.1c0-0.2,2.4-0.6,7.2-1.4c3.4-0.7,5.3-1.1,5.6-1.2
				c0.1-0.4,0.2-0.6,0.3-0.6h0.2c0,0,0,0.1,0.1,0.2c0,0.1-0.1,0.2-0.1,0.3c0,0.1,0.1,0.1,0.1,0.1c5.5-1.1,8.4-1.6,8.7-1.6l0.1,0.1
				v0.1c0,0.1-2.6,0.6-7.9,1.6c-0.9,0.1-1.3,0.3-1.3,0.7c-2.5,7.3-3.7,11.3-3.7,12.2l-0.3,0.2H53c-0.1,0-0.1-0.1-0.2-0.3
				c0.8-2.9,1.8-6.4,3.2-10.4h-0.2c-1.7,2-3.1,3.3-4.2,3.9c-2.6,1.5-5,2.2-7.1,2.2h-0.1c-2.2,0-3.5-0.9-4-2.8c0-0.2-0.1-0.4-0.1-0.7
				l0-0.7c0-3.5,2.5-7,7.4-10.7C51.4,8.4,54.1,7.3,56,7.3z"/>
			<path d="M53.1,30.4L53.1,30.4c-0.3,0-0.4-0.3-0.5-0.4c0,0,0-0.1,0-0.1c0.7-2.7,1.7-6,3-9.8c-1.5,1.7-2.8,2.9-3.8,3.5
				c-2.6,1.5-5.1,2.3-7.2,2.3h-0.1c-2.3,0-3.7-1-4.2-3c0-0.3-0.1-0.5-0.1-0.7l0-0.7c0-3.5,2.5-7.2,7.5-10.9C51.3,8.2,54.1,7,56,7
				c0,0,0,0,0,0c1.4,0.2,1.7,1,1.7,1.7v0.1c-0.1,1.3-0.8,3-2.4,5.3c0,0-0.1,0.1-0.1,0.1c-0.1,0-0.1,0-0.2,0l-0.3-0.2
				c-0.1-0.1-0.1-0.2-0.1-0.3c1.4-2.2,2.1-3.8,2.1-4.8V8.5C56.7,8.1,56.5,8,56.3,8h-0.6c-2.5,0.1-5.9,1.8-10.1,5.2
				c-3,2.9-4.6,5.6-4.6,8l0,1c0,1.5,1,2.3,3.1,2.6l0.5,0c3.5,0,6.9-1.7,10.1-5c0.8-0.9,1.3-1.6,1.7-2.1C44.5,20,44.3,20,44.2,20
				c-0.1,0-0.2,0-0.2-0.1L44,19.8c0,0,0-0.1,0-0.1v-0.1c0-0.3,0-0.4,7.3-1.7c3.8-0.7,5.1-1,5.4-1.1c0.1-0.4,0.3-0.6,0.5-0.6h0.2
				c0.1,0,0.2,0.1,0.2,0.2c0,0,0,0,0,0c0,0,0,0,0,0.1c0,0.1,0,0.1,0,0.2c0,0,0,0,0,0c7.3-1.4,8.4-1.6,8.6-1.6c0.1,0,0.2,0,0.2,0.1
				l0.1,0.1c0,0,0,0.1,0,0.1v0.1c0,0.3,0,0.4-8.1,1.8c-0.7,0.1-1.1,0.2-1.1,0.4c0,0,0,0,0,0.1c-2.5,7.2-3.7,11.3-3.7,12.1
				c0,0.1,0,0.1-0.1,0.2l-0.3,0.2C53.2,30.3,53.2,30.4,53.1,30.4z M53.1,29.9C53.1,29.9,53.1,29.9,53.1,29.9L53.1,29.9
				c0.1-0.2,0.1-0.4,0.2-0.6C53.2,29.5,53.1,29.7,53.1,29.9z M44.1,25.3c0.1,0,0.2,0,0.4,0h0.1c0.2,0,0.4,0,0.7,0
				c-0.2,0-0.4,0-0.6,0H44.1z M42.1,24.7c0.5,0.3,1.2,0.5,2,0.6C43.3,25.2,42.6,25,42.1,24.7z M53.1,22c-0.6,0.5-1.2,0.9-1.8,1.3
				c0.1,0,0.2-0.1,0.2-0.1C52,22.8,52.5,22.5,53.1,22z M55.9,19.2h0.2c0.1,0,0.1,0,0.2,0.1c0,0.1,0.1,0.1,0,0.2
				c-0.3,0.9-0.6,1.8-0.9,2.7c0.4-1.3,0.9-2.7,1.4-4.2C56.6,18.2,56.3,18.7,55.9,19.2z M56.7,17.3c0.1,0,0.1,0,0.1,0.1
				c0.1,0,0.1,0.1,0.1,0.2v0.3c0,0,0,0,0,0c0-0.3,0.3-0.5,0.5-0.6c-0.1-0.1-0.2-0.2-0.2-0.3c0,0,0-0.1,0-0.1c0,0.1-0.1,0.1-0.1,0.3
				c0,0.1-0.1,0.1-0.1,0.1c-0.1,0-0.4,0.1-1.7,0.4C55.7,17.5,56.2,17.4,56.7,17.3C56.6,17.3,56.6,17.3,56.7,17.3z M48.4,10.6
				c-0.1,0.1-0.3,0.2-0.4,0.3c-0.1,0.1-0.3,0.2-0.4,0.3C47.8,11,48.1,10.8,48.4,10.6z M57.3,8.5l0,0.3c0,0.1,0,0.2,0,0.2
				c0-0.1,0-0.2,0-0.3V8.7C57.3,8.6,57.3,8.6,57.3,8.5z M57.2,8.3c0,0,0,0.1,0,0.1C57.3,8.4,57.2,8.3,57.2,8.3z M56,7.5
				c-0.5,0-1.2,0.1-1.9,0.3c0.6-0.1,1.1-0.2,1.6-0.2l0.6,0c0,0,0,0,0.1,0C56.3,7.5,56.1,7.5,56,7.5z"/>
		</g>
		<g>
			<path d="M61,16.5c0.3,0,0.6,0.4,0.8,1.2h0.2c0.2,0,0.7-0.1,1.2-0.2c0.1,0,0.1,0.1,0.1,0.1v0.1c-0.4,1-0.5,1.6-0.5,1.9v0.5
				c0,0.1,0.1,0.1,0.2,0.2h0.3c0.5,0,1.1-0.8,2-2.3h0.1c0.1,0,0.1,0.1,0.1,0.1v0.1c-0.5,1.2-1.1,2-2,2.4c-0.1,0-0.2,0.1-0.4,0.1
				c-0.4,0-0.6-0.3-0.7-0.8v-0.1c0-0.2,0.1-0.7,0.3-1.6v-0.1h-0.1c-0.1,0-0.3,0-0.7,0.1l-0.4-0.1c0,0-0.1,0.1-0.3,0.3
				c-0.1,0-0.2-0.1-0.2-0.1v-0.3c-0.4-0.4-0.5-0.6-0.5-0.9v-0.3C60.7,16.6,60.8,16.5,61,16.5z M61,17v0.2c0,0.1,0.1,0.1,0.2,0.2h0.1
				v-0.2C61.2,17.1,61.2,17.1,61,17L61,17z"/>
			<path d="M63.1,20.9c-0.3,0-0.8-0.1-0.9-1l0-0.1c0-0.1,0-0.4,0.3-1.5c-0.1,0-0.3,0-0.5,0.1c0,0,0,0-0.1,0l-0.3,0
				c-0.1,0.1-0.1,0.1-0.2,0.2c-0.1,0.1-0.2,0.1-0.2,0c-0.1,0-0.1,0-0.1,0c-0.1,0-0.2-0.1-0.2-0.2V18c-0.4-0.4-0.5-0.7-0.5-0.9v-0.3
				c0,0,0-0.1,0-0.1c0.1-0.2,0.3-0.4,0.6-0.4c0.6,0,0.8,0.8,1,1.2h0c0.2,0,0.6-0.1,1.2-0.2c0,0,0.1,0,0.1,0c0.2,0,0.3,0.2,0.3,0.4
				v0.1c0,0,0,0.1,0,0.1C63.1,19,63,19.4,63,19.6V20c0,0,0,0,0,0h0.2c0.2,0,0.7-0.2,1.8-2.2c0-0.1,0.1-0.1,0.2-0.1h0.1
				c0.2,0,0.4,0.2,0.4,0.4v0.1c0,0,0,0.1,0,0.1c-0.5,1.2-1.2,2.1-2.1,2.5C63.5,20.9,63.3,20.9,63.1,20.9z M62.8,17.8
				c0.1,0,0.2,0.1,0.2,0.2v0c0-0.1,0.1-0.2,0.1-0.3C63,17.8,62.9,17.8,62.8,17.8z M61.1,17.6c0,0,0.1,0.1,0.1,0.1
				c0,0,0.1,0.1,0.1,0.2V18c0,0,0,0,0,0c0,0,0-0.1,0.1-0.1c0,0,0.1-0.1,0.1-0.1c0,0,0,0,0,0c0-0.1-0.1-0.2-0.1-0.3
				c0,0.1-0.1,0.2-0.2,0.2L61.1,17.6C61.1,17.6,61.1,17.6,61.1,17.6z M61,16.8c0,0-0.1,0-0.1,0.1C60.9,16.8,60.9,16.8,61,16.8
				L61,16.8C61,16.8,61,16.8,61,16.8z"/>
		</g>
		<g>
			<path d="M67.1,17c0.2,0,0.4,0.2,0.7,0.6c-0.3,0.9-0.4,1.5-0.4,1.9c0.1,0.2,0.2,0.3,0.3,0.3c0.5,0,1.3-0.6,2.3-1.8H70v0.3
				c-0.9,1.3-1.7,2-2.4,2c-0.3,0-0.6-0.3-0.7-1h-0.1c-0.9,1-1.6,1.4-2,1.4c-0.4-0.1-0.6-0.3-0.6-0.7c0-1.1,0.8-2.1,2.5-3L67.1,17z
				 M64.6,20v0.1c0,0.1,0.1,0.1,0.2,0.2c0.9-0.2,1.7-1.1,2.5-2.6v-0.1c0-0.1-0.1-0.2-0.3-0.3c-0.6,0-1.3,0.5-2.1,1.6
				C64.7,19.4,64.6,19.7,64.6,20z"/>
			<path d="M64.8,20.9C64.3,20.8,64,20.5,64,20c0-1.2,0.9-2.3,2.6-3.2c0,0,0,0,0.1,0l0.3-0.1c0,0,0,0,0,0c0.3,0,0.6,0.2,0.9,0.7
				c0,0.1,0,0.1,0,0.2c-0.2,0.8-0.4,1.4-0.4,1.8c0,0.1,0.1,0.1,0.1,0.1c0.3,0,1-0.4,2.1-1.8c0-0.1,0.1-0.1,0.2-0.1H70
				c0.1,0,0.2,0.1,0.2,0.2v0.3c0,0,0,0.1,0,0.1c-1,1.4-1.8,2.1-2.6,2.1c-0.4,0-0.7-0.3-0.8-0.8C65.9,20.5,65.3,20.9,64.8,20.9z
				 M64.9,20C64.9,20,64.9,20,64.9,20c0.8-0.2,1.5-1,2.2-2.3c0,0,0,0-0.1-0.1c-0.5,0-1.2,0.5-1.9,1.5C65,19.5,64.9,19.7,64.9,20
				L64.9,20z M66.9,19L66.9,19c0.1,0,0.2,0,0.3,0.1c0-0.2,0.1-0.5,0.2-0.9C67.2,18.5,67,18.8,66.9,19C66.8,19,66.9,19,66.9,19z"/>
		</g>
		<g>
			<path d="M72.1,17.4c0.4,0,0.6,0.3,0.7,0.9v0.1c0,0.5-0.2,1-0.6,1.4l0.1,0.1c0.4,0,1.2-0.7,2.3-2h0.2l0,0.2
				c-1.1,1.7-2.5,2.5-3.9,2.5c-0.5-0.1-0.8-0.2-0.8-0.2h-0.1c-0.4,0.7-1.2,3.8-2.6,9.5c-0.3,1.1-0.5,1.6-0.7,1.6h-0.2
				c-0.1,0-0.2-0.2-0.2-0.4v-0.1c0-1.2,1-4.8,3-10.8c0.4-1.8,0.7-2.8,0.8-2.8l0.1,0c0.1,0,0.1,0.1,0.1,0.1c-0.2,0.7-0.3,1.2-0.3,1.3
				v0.1h0.1C71,18,71.6,17.4,72.1,17.4z M70.2,20c0,0.1,0.1,0.1,0.1,0.1h0.3c0.8,0,1.4-0.6,1.6-1.7l0-0.3c0-0.1-0.1-0.1-0.2-0.2H72
				C71.5,17.9,70.9,18.6,70.2,20z"/>
			<path d="M66.7,31.8h-0.2c0,0,0,0-0.1,0c-0.1,0-0.4-0.2-0.4-0.6v-0.1c0-1.3,1-4.8,3-10.8c0.6-2.9,0.8-2.9,1-2.9h0.1
				c0.2,0,0.4,0.2,0.4,0.4c-0.1,0.3-0.1,0.5-0.2,0.7c0.7-0.9,1.2-1.3,1.6-1.3c0.4,0,0.8,0.2,0.9,1.1l0,0.1c0,0.4-0.1,0.8-0.3,1.2
				c0.3-0.2,0.9-0.7,1.7-1.7c0-0.1,0.1-0.1,0.2-0.1h0.2c0.1,0,0.2,0.1,0.2,0.2v0.2c0,0,0,0.1,0,0.1c-1.2,1.7-2.6,2.6-4.1,2.6
				c0,0,0,0-0.1,0c-0.3-0.1-0.6-0.1-0.7-0.2c-0.4,0.9-1.2,4-2.5,9.3C67.2,31.5,67,31.8,66.7,31.8z M66.5,31.4L66.5,31.4
				c0.1-0.1,0.3-0.3,0.6-1.4c1.3-5.8,2.2-8.9,2.6-9.6c0-0.1,0.1-0.1,0.2-0.1H70c0,0,0,0,0.1,0C70,20.2,70,20.2,70,20.1
				c0,0,0-0.1,0-0.1c0.1-0.2,0.2-0.4,0.3-0.6c0,0-0.1,0.1-0.2,0.1h-0.1c-0.1,0-0.2-0.1-0.2-0.2v-0.1c0,0,0-0.1,0-0.2
				c-0.1,0.4-0.2,0.9-0.4,1.5c-2,5.9-3,9.5-3,10.7v0.1C66.5,31.3,66.5,31.4,66.5,31.4z M70.5,20.4c0.1,0,0.2,0,0.3,0.1
				c0.5,0,0.9-0.1,1.4-0.3c-0.1,0-0.1-0.1-0.1-0.1l-0.1-0.1c0,0,0-0.1,0-0.1c-0.3,0.4-0.7,0.5-1.2,0.5H70.5z M70.2,20L70.2,20
				L70.2,20z M70.5,20h0.2c0.7,0,1.2-0.5,1.4-1.5l0-0.2c0,0,0,0,0,0H72C71.8,18.2,71.3,18.4,70.5,20z M70.1,17.8L70.1,17.8
				C70.1,17.8,70.1,17.8,70.1,17.8z M72,17.7h0.1c0,0,0.1,0,0.1,0c0,0,0.1,0,0.1,0.1C72.3,17.6,72.1,17.6,72,17.7
				c0-0.1-0.1-0.1-0.2,0C71.8,17.7,71.9,17.7,72,17.7z"/>
		</g>
		<g>
			<path d="M77.5,6.2L77.5,6.2c0.2,0,0.2,0.1,0.2,0.1v0.1c0,0.3-0.3,1.4-0.9,3.2l-2.3,10.1h0.1c1-1.5,1.8-2.2,2.3-2.2
				c0.3,0.1,0.4,0.3,0.4,0.5c-0.2,0.7-0.3,1.2-0.3,1.4v0.4c0,0.1,0.1,0.1,0.2,0.2h0.1c0.6,0,1.3-0.6,2.2-1.8h0.1
				c0.1,0,0.1,0.1,0.1,0.1v0.1c-0.9,1.4-1.7,2-2.4,2c-0.4,0-0.7-0.3-0.7-0.8v-0.1l0.3-1.5h-0.3c-0.9,0.8-1.7,1.8-2.2,3
				c-0.2,0.5-0.4,0.8-0.5,0.8h-0.1c-0.1,0-0.1-0.1-0.1-0.2c1.4-6.4,2.6-11.5,3.6-15.2L77.5,6.2z"/>
			<path d="M73.9,21.8L73.9,21.8c-0.2,0-0.4-0.1-0.4-0.4c1.4-6.5,2.7-11.6,3.6-15.2c0-0.1,0.1-0.1,0.1-0.1L77.4,6c0,0,0.1,0,0.1,0
				h0.1c0.2,0,0.4,0.2,0.4,0.4v0.1c0,0.2-0.1,0.8-0.9,3.3l-2.1,9.1c1.1-1.4,1.6-1.6,1.9-1.6c0,0,0.1,0,0.1,0
				c0.4,0.2,0.5,0.5,0.5,0.7c-0.2,0.9-0.3,1.3-0.3,1.4l0,0.3c0,0,0,0,0,0h0.1c0.3,0,1-0.3,2.1-1.7c0-0.1,0.1-0.1,0.2-0.1h0.1
				c0.2,0,0.4,0.2,0.4,0.4v0.1c0,0,0,0.1,0,0.1c-0.9,1.4-1.8,2.1-2.6,2.1c-0.3,0-0.9-0.1-0.9-1l0-0.1l0.2-1.2
				c-0.8,0.7-1.5,1.6-2,2.7C74.2,21.7,74.1,21.8,73.9,21.8z M74.3,19.8c-0.1,0.4-0.2,0.8-0.3,1.3c0-0.1,0.1-0.2,0.1-0.3
				c0.1-0.3,0.3-0.6,0.5-0.9c0,0,0,0,0,0h-0.1C74.4,19.9,74.4,19.8,74.3,19.8C74.3,19.8,74.3,19.8,74.3,19.8z M76.8,17.7L76.8,17.7
				C76.8,17.6,76.8,17.6,76.8,17.7C76.8,17.6,76.8,17.6,76.8,17.7z"/>
		</g>
		<g>
			<path d="M79.8,17.4H80c0,0,0,0.1,0.1,0.2c-0.4,1.1-0.6,1.9-0.6,2.4v0.6h0.3c0.5,0,1.5-0.9,3-2.6h0.2c0,0.1,0,0.1,0.1,0.1
				c-1.3,1.9-2.5,2.9-3.5,2.9h-0.1c-0.3-0.1-0.4-0.4-0.4-0.9C79.4,18.3,79.6,17.4,79.8,17.4z M80.5,15.8h0.2c0.1,0,0.1,0.1,0.1,0.1
				v0.1c-0.3,0.4-0.4,0.5-0.5,0.5h-0.1c-0.2-0.1-0.3-0.2-0.3-0.5C80,16.1,80.2,16,80.5,15.8z"/>
			<path d="M79.5,21.3L79.5,21.3c-0.1,0-0.1,0-0.2,0c-0.3-0.2-0.5-0.5-0.5-1.1c0.5-2.8,0.7-3.1,1-3.1H80c0.1,0,0.2,0.1,0.2,0.2
				c0,0,0,0,0,0c0,0,0,0,0,0.1c0,0.1,0,0.1,0,0.2c-0.4,1.1-0.6,1.9-0.6,2.4v0.4h0c0.3,0,1-0.3,2.8-2.5c0-0.1,0.1-0.1,0.2-0.1h0.2
				c0.1,0,0.2,0.1,0.2,0.2c0,0,0,0,0,0.1c0,0.1,0,0.2,0,0.2C81.8,20.3,80.6,21.3,79.5,21.3z M79.5,20.8L79.5,20.8c0.1,0,0.1,0,0.2,0
				L79.5,20.8C79.5,20.8,79.5,20.8,79.5,20.8C79.5,20.8,79.5,20.8,79.5,20.8z M79.3,20.1C79.3,20.2,79.3,20.2,79.3,20.1
				c0,0.1,0,0.2,0,0.3V20.1z M83,17.9L83,17.9L83,17.9z M80.4,16.9L80.4,16.9c-0.1,0-0.1,0-0.2,0c-0.3-0.1-0.4-0.3-0.4-0.7
				c0-0.2,0.1-0.3,0.6-0.5c0,0,0.1,0,0.1,0h0.2c0.2,0,0.4,0.2,0.4,0.4v0.1c0,0,0,0.1,0,0.1C80.6,16.8,80.5,16.9,80.4,16.9z
				 M80.3,16.2c0,0.1,0,0.1,0.1,0.1c0,0,0.1-0.1,0.2-0.3h0C80.4,16.2,80.3,16.2,80.3,16.2z"/>
		</g>
		<g>
			<path d="M84.3,17.1c0.4,0,0.5,0.2,0.5,0.5c-0.1,0.4-0.3,0.8-0.8,1.3l-0.3-0.2c0.4-0.6,0.6-1,0.6-1.1h-0.1c-0.9,0-1.5,0.7-1.9,2.1
				l0,0.5c0.2,0.3,0.5,0.5,0.9,0.5h0.5c0.7,0,1.8-0.9,3.3-2.7h0.2c0,0.1,0,0.1,0.1,0.1c-0.8,1.5-1.9,2.6-3.3,3c-0.3,0-0.4,0-0.5,0.1
				c-1-0.2-1.5-0.6-1.5-1.2h-0.1c0-0.9,0.7-1.8,2-2.7C84.1,17.2,84.3,17.2,84.3,17.1z"/>
			<path d="M83.4,21.4C83.3,21.4,83.3,21.4,83.4,21.4c-1.3-0.2-1.7-0.8-1.7-1.3c0,0-0.1-0.1-0.1-0.2c0-1,0.7-2,2.1-2.9
				c0,0,0.1,0,0.1,0c0.2,0,0.3,0,0.3,0c0,0,0,0,0-0.1c0,0,0.1-0.1,0.2-0.1c0.5,0.1,0.7,0.3,0.7,0.7c-0.1,0.5-0.3,0.9-0.9,1.5
				c-0.1,0.1-0.2,0.1-0.3,0l-0.3-0.2c-0.1-0.1-0.1-0.2-0.1-0.3c0.2-0.4,0.4-0.6,0.5-0.8c-0.6,0.1-1.2,0.7-1.5,1.9v0.4
				c0.1,0.2,0.3,0.3,0.6,0.3h0.5c0.4,0,1.3-0.5,3.1-2.6c0-0.1,0.1-0.1,0.2-0.1h0.2c0.1,0,0.2,0.1,0.2,0.2c0,0,0,0,0,0
				c0,0.1,0,0.2,0,0.2c-0.8,1.6-2,2.6-3.4,3.1c0,0,0,0-0.1,0c-0.3,0-0.3,0-0.3,0C83.4,21.4,83.4,21.4,83.4,21.4z M83,20.9
				c0.1,0,0.2,0.1,0.3,0.1c0.1,0,0.2-0.1,0.5-0.1c0,0,0.1,0,0.1,0c-0.1,0-0.2,0-0.3,0h-0.5C83.1,20.9,83,20.9,83,20.9z M86.3,18.9
				c-0.6,0.7-1.2,1.2-1.6,1.5C85.3,20.1,85.9,19.6,86.3,18.9z M82,19.8c0,0,0.1,0.1,0.1,0.2c0,0,0,0.1,0,0.2L82,19.8
				c0.1-0.1,0.1-0.1,0.1-0.1c0.1-0.4,0.2-0.7,0.4-1C82.2,19,82,19.4,82,19.8z M87.1,17.8L87.1,17.8L87.1,17.8z M84.2,17.4L84.2,17.4
				c0.2,0,0.3,0.1,0.3,0.2c0,0,0,0,0,0c0,0,0,0,0-0.1c0-0.1,0-0.2-0.2-0.2C84.3,17.4,84.3,17.4,84.2,17.4z"/>
		</g>
		<g>
			<path d="M87.2,16.2h0.1c0.1,0,0.1,0.1,0.2,0.3l-0.5,1.3c0.8,0.8,1.2,1.3,1.2,1.5l0.2,0c0.1,0,0.5-0.5,1.2-1.4h0.2V18
				c0,0.3-0.5,0.9-1.4,2c0,0.6-0.4,0.9-1.1,0.9c-0.7-0.2-1-0.5-1-0.9c1.1-0.2,1.6-0.4,1.6-0.5c0-0.4-0.5-0.9-1.4-1.6
				c-0.2-0.3-0.3-0.6-0.3-0.8C86.3,16.8,86.6,16.5,87.2,16.2z M86.9,16.8c-0.2,0.2-0.3,0.4-0.3,0.5v0.1c0,0.1,0.1,0.1,0.1,0.1
				l0.3-0.7L86.9,16.8z M87.1,20.3v0.1c0,0.1,0.1,0.1,0.1,0.1h0.5c0.1,0,0.2-0.1,0.3-0.3v-0.1C87.9,20.2,87.6,20.2,87.1,20.3z"/>
			<path d="M87.4,21.2C87.4,21.2,87.3,21.2,87.4,21.2c-0.8-0.2-1.2-0.6-1.2-1.1c0-0.1,0.1-0.2,0.2-0.2c0.9-0.2,1.2-0.3,1.4-0.3
				c-0.1-0.2-0.3-0.6-1.3-1.4c0,0,0,0-0.1-0.1c-0.2-0.4-0.3-0.7-0.3-0.9c0-0.5,0.4-0.9,1.1-1.2c0,0,0.1,0,0.1,0h0.1
				c0.3,0,0.4,0.4,0.4,0.5c0,0,0,0.1,0,0.1l-0.4,1.2c0.7,0.7,1,1.1,1.1,1.3c0.1-0.1,0.3-0.4,1-1.3c0-0.1,0.1-0.1,0.2-0.1h0.2
				c0.1,0,0.2,0.1,0.2,0.2V18c0,0.2-0.2,0.7-1.4,2.1C88.6,20.5,88.4,21.1,87.4,21.2C87.4,21.2,87.4,21.2,87.4,21.2z M86.7,20.3
				c0,0.1,0.1,0.2,0.2,0.2c0,0,0,0,0-0.1l0-0.2c0,0,0,0,0-0.1C86.8,20.3,86.8,20.3,86.7,20.3z M88,20c0.1,0,0.1,0,0.2,0.1
				c0,0,0-0.1,0.1-0.1c0.1-0.1,0.2-0.2,0.2-0.3c0,0,0,0,0,0h-0.2c0,0-0.1,0-0.1,0c0,0,0,0,0,0.1c0,0.1,0,0.2-0.3,0.3
				C88,20,88,20,88,20z M86.7,17.9c0,0,0.1,0.1,0.1,0.1c0-0.1,0-0.1,0-0.2l0-0.1c-0.1,0-0.2,0-0.3,0C86.6,17.7,86.7,17.8,86.7,17.9z
				 M87,16.6C87,16.6,87,16.6,87,16.6l0.1,0.1c0,0,0.1,0,0.1,0.1l0-0.1c0,0,0-0.1,0-0.1h0C87.2,16.5,87.1,16.5,87,16.6z"/>
		</g>
	</g>
	<g>
		<g>
			<path class="st1" d="M2.6,13.6c-0.9-0.3-1.6-0.7-2.1-1.3L1,11.2c0.5,0.5,1.1,0.9,1.9,1.2c0.8,0.3,1.6,0.4,2.5,0.4
				c1.2,0,2.1-0.2,2.7-0.7c0.6-0.4,0.9-1,0.9-1.7c0-0.5-0.2-1-0.5-1.3C8.2,8.9,7.8,8.6,7.3,8.5c-0.5-0.2-1.1-0.4-2-0.6
				C4.4,7.6,3.6,7.4,3,7.2C2.4,6.9,1.9,6.6,1.4,6.1C1,5.6,0.8,5,0.8,4.1c0-0.7,0.2-1.3,0.5-1.8C1.7,1.7,2.2,1.3,3,1
				c0.7-0.3,1.7-0.5,2.7-0.5c0.8,0,1.5,0.1,2.2,0.3C8.7,1,9.3,1.3,9.8,1.7L9.4,2.8C8.8,2.4,8.2,2.1,7.6,2C6.9,1.8,6.3,1.7,5.7,1.7
				c-1.2,0-2,0.2-2.6,0.7s-0.9,1-0.9,1.7c0,0.5,0.2,1,0.5,1.3C3,5.7,3.4,6,3.9,6.1s1.1,0.4,2,0.6c1,0.2,1.8,0.5,2.4,0.7
				C8.8,7.6,9.4,8,9.8,8.5c0.4,0.5,0.6,1.1,0.6,1.9c0,0.7-0.2,1.3-0.5,1.8c-0.4,0.6-0.9,1-1.7,1.3C7.4,13.9,6.5,14,5.4,14
				C4.4,14,3.5,13.9,2.6,13.6z"/>
			<path class="st1" d="M5.4,14.5c-1,0-2.1-0.2-3-0.5c-1-0.3-1.7-0.8-2.3-1.4C0,12.5,0,12.3,0.1,12.1L0.6,11
				c0.1-0.1,0.2-0.2,0.3-0.3c0.1,0,0.3,0,0.4,0.1c0.4,0.4,1,0.8,1.8,1.1c0.7,0.3,1.5,0.4,2.3,0.4c1.1,0,1.9-0.2,2.4-0.6
				c0.5-0.3,0.7-0.8,0.7-1.3c0-0.4-0.1-0.7-0.3-0.9c-0.3-0.3-0.6-0.5-1-0.6C6.7,8.7,6.1,8.6,5.3,8.4c-1-0.3-1.8-0.5-2.5-0.8
				C2.1,7.3,1.6,6.9,1.1,6.4C0.6,5.8,0.3,5.1,0.3,4.1c0-0.8,0.2-1.5,0.6-2.1c0.4-0.6,1-1.1,1.8-1.5C3.6,0.2,4.6,0,5.7,0
				c0.8,0,1.6,0.1,2.4,0.3c0.8,0.2,1.5,0.5,2,0.9c0.2,0.1,0.3,0.4,0.2,0.6L9.8,3C9.7,3.1,9.6,3.2,9.5,3.2c-0.1,0-0.3,0-0.4-0.1
				C8.6,2.8,8,2.6,7.4,2.4C6.9,2.2,6.3,2.1,5.7,2.1c-1.1,0-1.8,0.2-2.4,0.6C2.9,3.1,2.7,3.5,2.7,4.1c0,0.4,0.1,0.7,0.3,1
				c0.3,0.3,0.6,0.5,1,0.6C4.5,5.8,5.2,6,6,6.2C7,6.5,7.8,6.7,8.4,7c0.7,0.3,1.3,0.7,1.7,1.2c0.5,0.6,0.7,1.3,0.7,2.2
				c0,0.8-0.2,1.5-0.6,2.1c-0.4,0.6-1,1.1-1.9,1.5C7.6,14.3,6.6,14.5,5.4,14.5z M1.1,12.2c0.4,0.4,1,0.7,1.7,0.9l0,0
				c0.9,0.3,1.8,0.5,2.7,0.5c1,0,1.9-0.2,2.6-0.4c0.7-0.3,1.2-0.7,1.5-1.1c0.3-0.5,0.5-1,0.5-1.6c0-0.7-0.2-1.2-0.5-1.6
				C9,8.4,8.6,8,8.1,7.8C7.5,7.6,6.7,7.4,5.8,7.1c-0.8-0.2-1.5-0.4-2-0.6c-0.6-0.2-1-0.5-1.4-0.9c-0.4-0.4-0.6-1-0.6-1.6
				c0-0.9,0.4-1.6,1.1-2.1c0.7-0.5,1.7-0.8,2.9-0.8c0.6,0,1.3,0.1,2,0.3c0.5,0.1,1,0.3,1.4,0.6l0.1-0.3C8.8,1.6,8.4,1.4,7.8,1.2
				C7.1,1,6.4,0.9,5.7,0.9c-1,0-1.9,0.2-2.6,0.5C2.5,1.7,2,2.1,1.7,2.5C1.4,3,1.3,3.5,1.3,4.1c0,0.7,0.2,1.3,0.5,1.6
				c0.4,0.4,0.8,0.7,1.4,0.9C3.7,7,4.5,7.2,5.5,7.4C6.3,7.7,7,7.8,7.5,8c0.5,0.2,1,0.5,1.4,0.8c0.4,0.4,0.6,1,0.6,1.6
				c0,0.9-0.4,1.6-1.1,2.1c-0.7,0.5-1.7,0.7-3,0.7c-0.9,0-1.8-0.2-2.6-0.5c-0.6-0.2-1.2-0.5-1.6-0.9L1.1,12.2z"/>
		</g>
		<g>
			<path class="st1" d="M24.6,0.6l0,13.3h-1.4l0-6.2l-8.3,0l0,6.2l-1.4,0l0-13.3l1.4,0l0,5.9l8.3,0l0-5.9L24.6,0.6z"/>
			<path class="st1" d="M24.6,14.4h-1.4c-0.3,0-0.5-0.2-0.5-0.5l0-5.7l-7.4,0l0,5.7c0,0.3-0.2,0.5-0.5,0.5h-1.4
				c-0.3,0-0.5-0.2-0.5-0.5l0-13.3c0-0.3,0.2-0.5,0.5-0.5l1.4,0c0.3,0,0.5,0.2,0.5,0.5l0,5.5l7.4,0l0-5.5c0-0.3,0.2-0.5,0.5-0.5
				l1.4,0c0.3,0,0.5,0.2,0.5,0.5l0,13.3C25.1,14.2,24.9,14.4,24.6,14.4z M23.7,13.5l0.4,0l0-12.4l-0.4,0l0,5.5
				c0,0.3-0.2,0.5-0.5,0.5l-8.3,0c-0.3,0-0.5-0.2-0.5-0.5l0-5.5l-0.5,0l0,12.4h0.5l0-5.7c0-0.3,0.2-0.5,0.5-0.5l8.3,0
				c0.3,0,0.5,0.2,0.5,0.5L23.7,13.5z"/>
		</g>
		<g>
			<path class="st1" d="M38.4,12.7l0,1.2l-9.4,0l0-13.3l9.1,0l0,1.2l-7.7,0l0,4.7l6.9,0l0,1.2l-6.9,0l0,5L38.4,12.7z"/>
			<path class="st1" d="M38.4,14.4l-9.4,0c-0.3,0-0.5-0.2-0.5-0.5l0-13.3c0-0.3,0.2-0.5,0.5-0.5l9.1,0c0.3,0,0.5,0.2,0.5,0.5l0,1.2
				c0,0.3-0.2,0.5-0.5,0.5l-7.3,0l0,3.8l6.4,0c0.3,0,0.5,0.2,0.5,0.5l0,1.2c0,0.3-0.2,0.5-0.5,0.5l-6.4,0l0,4l7.5,0
				c0.3,0,0.5,0.2,0.5,0.5l0,1.2C38.9,14.2,38.6,14.4,38.4,14.4z M29.4,13.5l8.5,0v-0.3l-7.5,0c-0.3,0-0.5-0.2-0.5-0.5l0-5
				c0-0.3,0.2-0.5,0.5-0.5l6.4,0l0-0.3l-6.4,0c-0.3,0-0.5-0.2-0.5-0.5l0-4.7c0-0.3,0.2-0.5,0.5-0.5l7.3,0V1.1l-8.2,0L29.4,13.5z"/>
		</g>
		<g>
			<path class="st1" d="M51.1,13.5c1.2-0.6,2.1-1.5,2.7-2.5c0.6-1.1,1-2.3,1-3.7c0-1.4-0.3-2.6-1-3.7c-0.6-1.1-1.5-1.9-2.7-2.5
				c-1.1-0.6-2.5-0.9-4-0.9l-5.4,0c-0.3,0-0.5,0.2-0.5,0.5l0,13.3c0,0.3,0.2,0.5,0.5,0.5l1.9-2.2l0-9.9l3.5,0c1.1,0,2,0.2,2.8,0.6
				c0.8,0.4,1.4,1,1.9,1.7c0.4,0.7,0.7,1.6,0.7,2.6c0,1-0.2,1.8-0.7,2.6c-0.4,0.7-1.1,1.3-1.9,1.7"/>
		</g>
		<g>
			<path class="st1" d="M65.4,6.4c0.7,0.3,1.2,0.8,1.6,1.4c0.4,0.6,0.6,1.3,0.6,2.1c0,0.8-0.2,1.5-0.6,2.2c-0.4,0.6-0.9,1.1-1.6,1.4
				C64.7,13.9,63.9,14,63,14c-1.8,0-3.1-0.6-4.1-1.7c-0.9-1.2-0.7-2.8-0.7-4.9c0-1.5-0.5-2.7,0-3.8c0.5-1,1.2-1.8,2.1-2.3
				s2-0.8,3.2-0.8c1.3,0,2.4,0.2,3.2,0.7l-0.6,1.1c-0.6-0.4-1.5-0.6-2.6-0.6c-1.5,0-2.6,0.5-3.5,1.4C59.4,4,59,5.4,59,7.1
				c0,0.3,0,0.7,0.1,1.1c0.3-0.7,0.9-1.3,1.6-1.7c0.7-0.4,1.6-0.6,2.5-0.6C64,5.9,64.8,6.1,65.4,6.4z M65.3,12.1
				c0.6-0.5,0.9-1.2,0.9-2.1c0-0.9-0.3-1.6-0.9-2.1c-0.6-0.5-1.4-0.8-2.4-0.8c-0.7,0-1.3,0.1-1.8,0.4c-0.5,0.3-0.9,0.6-1.2,1
				C59.6,9,59.5,9.5,59.5,10c0,0.5,0.1,1,0.4,1.4c0.3,0.4,0.7,0.8,1.2,1c0.5,0.3,1.2,0.4,1.9,0.4C64,12.9,64.7,12.6,65.3,12.1z"/>
			<path class="st1" d="M58.4,5.1l1.9-4.2c1-0.6,2.1-0.9,3.4-0.9c1.4,0,2.6,0.3,3.4,0.8c0.2,0.1,0.3,0.4,0.2,0.6l-0.6,1.1
				c-0.1,0.1-0.2,0.2-0.3,0.2c-0.1,0-0.3,0-0.4-0.1c-0.6-0.4-1.3-0.6-2.3-0.6c-1.3,0-2.4,0.4-3.1,1.2c-0.7,0.8-1.1,1.9-1.1,3.4
				c0.3-0.3,0.6-0.5,0.9-0.7c0.8-0.4,1.7-0.7,2.7-0.7c0.9,0,1.8,0.2,2.5,0.5l0,0c0.8,0.4,1.4,0.9,1.8,1.6c0.4,0.7,0.6,1.5,0.6,2.4
				c0,0.9-0.2,1.7-0.7,2.4C67,13,66.4,13.6,65.6,14c-0.8,0.4-1.6,0.6-2.5,0.6c-1.9,0-3.4-0.6-4.4-1.9L58.4,5.1z M63.7,0.9
				c-1.1,0-2.1,0.2-3,0.7c-0.8,0.5-1.5,1.2-1.9,2.1c-0.5,1-0.7,2.2-0.7,3.6c0,2,0.4,3.6,1.3,4.6c0.9,1.1,2.1,1.6,3.7,1.6
				c0.8,0,1.5-0.2,2.1-0.5c0.6-0.3,1.1-0.7,1.4-1.3c0.3-0.5,0.5-1.2,0.5-1.9c0-0.7-0.2-1.3-0.5-1.9c-0.3-0.5-0.8-0.9-1.4-1.2
				c-0.6-0.3-1.3-0.4-2.1-0.4c-0.9,0-1.6,0.2-2.3,0.5c-0.5,0.3-0.9,0.7-1.2,1.2c0.3-0.4,0.8-0.8,1.3-1.1c0.6-0.3,1.2-0.4,2-0.4
				c1.1,0,2.1,0.3,2.8,0.9c0.7,0.6,1.1,1.4,1.1,2.5c0,1-0.4,1.8-1.1,2.5l0,0C65,13,64.1,13.3,63,13.3c-0.8,0-1.5-0.2-2.1-0.4
				c-0.6-0.3-1.1-0.7-1.4-1.2C59.2,11.2,59,10.6,59,10c0-0.5,0.1-1,0.3-1.4c-0.1,0.1-0.2,0.1-0.4,0.1c-0.2,0-0.4-0.2-0.4-0.4
				c0-0.4-0.1-0.8-0.1-1.1c0-1.9,0.5-3.4,1.4-4.4c0.9-1,2.2-1.6,3.8-1.6c0.9,0,1.7,0.2,2.4,0.5l0.1-0.3C65.5,1.1,64.7,0.9,63.7,0.9z
				 M62.9,7.6c-0.6,0-1.1,0.1-1.6,0.3c-0.4,0.2-0.8,0.5-1,0.9c-0.2,0.4-0.4,0.8-0.4,1.2c0,0.4,0.1,0.8,0.3,1.2
				c0.2,0.4,0.6,0.7,1,0.9c0.5,0.2,1,0.3,1.7,0.3c0.9,0,1.5-0.2,2-0.7h0c0.5-0.4,0.7-1,0.7-1.7c0-0.7-0.2-1.3-0.7-1.7
				C64.5,7.8,63.8,7.6,62.9,7.6z"/>
		</g>
		<g>
			<path class="st1" d="M69.8,13.9l0-1c0-0.1,0.1-0.2,0.1-0.3l5.5-5.4c0.7-0.6,1.1-1.2,1.3-1.7c0.2-0.4,0.3-0.9,0.3-1.3
				c0-0.6-0.2-1.1-0.6-1.5c-0.5-0.4-1.1-0.6-2-0.6c-1.4,0-2.5,0.4-3.3,1.3c-0.2,0.2-0.5,0.2-0.7,0.1l-1-0.8
				c-0.2-0.2-0.2-0.5-0.1-0.7c0.6-0.7,1.3-1.2,2.2-1.5C72.5,0.2,73.5,0,74.6,0c1.5,0,2.7,0.4,3.5,1.1c0.9,0.7,1.4,1.7,1.4,3
				c0,0.8-0.2,1.5-0.5,2.2c-0.3,0.7-0.9,1.5-1.8,2.3l-3.7,3.6"/>
		</g>
		<g>
			<path class="st1" d="M90.4,6.4c0.7,0.3,1.2,0.8,1.6,1.4c0.4,0.6,0.6,1.3,0.6,2.1c0,0.8-0.2,1.5-0.6,2.2c-0.4,0.6-0.9,1.1-1.6,1.4
				C89.7,13.9,88.9,14,88,14c-1.8,0-3.1-0.6-4.1-1.7c-0.9-1.2-1.4-2.8-1.4-4.9c0-1.5,0.3-2.7,0.8-3.8c0.5-1,1.2-1.8,2.1-2.3
				c0.9-0.5,2-0.8,3.2-0.8c1.3,0,2.4,0.2,3.2,0.7l-0.6,1.1c-0.6-0.4-1.5-0.6-2.6-0.6c-1.5,0-2.6,0.5-3.5,1.4C84.4,4,84,5.4,84,7.1
				c0,0.3,0,0.7,0.1,1.1c0.3-0.7,0.9-1.3,1.6-1.7c0.7-0.4,1.6-0.6,2.5-0.6C89,5.9,89.8,6.1,90.4,6.4z M90.3,12.1
				c0.6-0.5,0.9-1.2,0.9-2.1c0-0.9-0.3-1.6-0.9-2.1c-0.6-0.5-1.4-0.8-2.4-0.8c-0.7,0-1.3,0.1-1.8,0.4c-0.5,0.3-0.9,0.6-1.2,1
				C84.6,9,84.5,9.5,84.5,10c0,0.5,0.1,1,0.4,1.4c0.3,0.4,0.7,0.8,1.2,1c0.5,0.3,1.2,0.4,1.9,0.4C89,12.9,89.7,12.6,90.3,12.1z"/>
			<path class="st1" d="M88,14.5c-1.9,0-3.4-0.6-4.4-1.9c-1-1.2-1.5-3-1.5-5.2c0-1.6,0.3-2.9,0.8-4c0.5-1.1,1.3-2,2.3-2.5
				c1-0.6,2.1-0.9,3.4-0.9c1.4,0,2.6,0.3,3.4,0.8c0.2,0.1,0.3,0.4,0.2,0.6l-0.6,1.1c-0.1,0.1-0.2,0.2-0.3,0.2c-0.1,0-0.3,0-0.4-0.1
				c-0.6-0.4-1.3-0.6-2.3-0.6c-1.3,0-2.4,0.4-3.1,1.2c-0.7,0.8-1.1,1.9-1.1,3.4c0.3-0.3,0.6-0.5,0.9-0.7c0.8-0.4,1.7-0.7,2.7-0.7
				c0.9,0,1.8,0.2,2.5,0.5l0,0c0.8,0.4,1.4,0.9,1.8,1.6c0.4,0.7,0.6,1.5,0.6,2.4c0,0.9-0.2,1.7-0.7,2.4C92,13,91.4,13.6,90.6,14
				C89.8,14.3,89,14.5,88,14.5z M88.7,0.9c-1.1,0-2.1,0.2-3,0.7c-0.8,0.5-1.5,1.2-1.9,2.1c-0.5,1-0.7,2.2-0.7,3.6
				c0,2,0.4,3.6,1.3,4.6c0.9,1.1,2.1,1.6,3.7,1.6c0.8,0,1.5-0.2,2.1-0.5c0.6-0.3,1.1-0.7,1.4-1.3c0.3-0.5,0.5-1.2,0.5-1.9
				c0-0.7-0.2-1.3-0.5-1.9c-0.3-0.5-0.8-0.9-1.4-1.2l0,0c-0.6-0.3-1.3-0.4-2.1-0.4c-0.9,0-1.6,0.2-2.3,0.5c-0.5,0.3-0.9,0.7-1.2,1.2
				c0.3-0.4,0.8-0.8,1.3-1.1c0.6-0.3,1.2-0.4,2-0.4c1.1,0,2.1,0.3,2.8,0.9c0.7,0.6,1.1,1.4,1.1,2.5c0,1-0.4,1.8-1.1,2.5l0,0
				C90,13,89.1,13.3,88,13.3c-0.8,0-1.5-0.2-2.1-0.4c-0.6-0.3-1.1-0.7-1.4-1.2C84.2,11.2,84,10.6,84,10c0-0.5,0.1-1,0.3-1.4
				c-0.1,0.1-0.2,0.1-0.4,0.1c-0.2,0-0.4-0.2-0.4-0.4c0-0.4-0.1-0.8-0.1-1.1c0-1.9,0.5-3.4,1.4-4.4c0.9-1,2.2-1.6,3.8-1.6
				c0.9,0,1.7,0.2,2.4,0.4l0.1-0.3C90.5,1.1,89.7,0.9,88.7,0.9z M87.9,7.6c-0.6,0-1.1,0.1-1.6,0.3c-0.4,0.2-0.8,0.5-1,0.9
				c-0.2,0.4-0.4,0.8-0.4,1.2c0,0.4,0.1,0.8,0.3,1.2c0.2,0.4,0.6,0.7,1,0.9c0.5,0.2,1,0.3,1.7,0.3c0.9,0,1.5-0.2,2-0.7l0,0
				c0.5-0.4,0.7-1,0.7-1.7c0-0.7-0.2-1.3-0.7-1.7C89.5,7.8,88.8,7.6,87.9,7.6z"/>
		</g>
	</g>
</g>
</svg>
